<svg width="2399" height="750" viewBox="0 0 2399 750" fill="none" xmlns="http://www.w3.org/2000/svg">
<path d="M81.6338 0L148.775 52.5177L174.507 59.8938C229.908 47.7639 262.099 47.4276 321.803 59.8938L348.718 52.5177L413.789 0V51.3375L248.746 177.616L81.6338 51.0425V0Z" fill="#001F3F"/>
<path d="M111.211 87.0378C73.3521 155.783 79.5634 186.762 102.634 248.721L70.9859 295.928L161.197 266.424C186.993 267.365 200.874 266.535 224.197 261.703L248.451 310.09L272.704 260.523L386.873 286.192L391.606 249.607C422.076 185.975 419.213 150.318 384.803 86.7427L364.986 102.085C371.493 110.641 379.573 117.712 382.732 125.393C410.535 179.386 382.838 238.951 328.901 254.917C307.014 261.396 297.254 259.048 275.958 254.917V252.262L247.859 202.105L220.944 252.262L220.056 254.917C189.948 261.685 174.817 259.971 149.07 247.541C114.465 229.544 99.7117 197.384 103.817 149.882C105.296 132.769 128.958 101.495 131.324 101.495C133.69 101.495 113.649 88.1752 111.211 87.0378Z" fill="#001F3F"/>
<path d="M184.859 273.21L46.7324 314.811L0 661.782L216.803 492.427L252.592 341.07L184.859 273.21Z" fill="#001F3F"/>
<path d="M343.394 395.948L351.972 400.964L316.183 492.427L183.972 570.319L162.084 670.338L18.6338 750L39.0423 644.375L308.197 485.936L343.394 395.948Z" fill="#001F3F"/>
<path d="M288.38 172.01V193.843H306.718V172.01H288.38Z" fill="#001F3F"/>
<path d="M315.296 193.843H333.042V151.062H315.296V193.843Z" fill="#001F3F"/>
<path d="M278.62 198.564V203.875H370.014V198.564H278.62Z" fill="#001F3F"/>
<path d="M275.662 271.44L378 362.313L441 375.295L440.857 375.032C418.995 334.856 406.084 311.129 392.493 300.354L275.662 271.44Z" fill="#1ABC9C"/>
<path d="M341.62 193.843H359.07V127.459H341.62V193.843Z" fill="#1ABC9C"/>
<path d="M267.972 282.947L303.761 361.133L355.817 390.637L346.352 347.561L267.972 282.947Z" fill="#1ABC9C"/>
<path d="M170.958 132.769H177.055C178.915 133.346 179.561 133.982 180.14 135.567L181.312 146.668L181.318 146.732C178.525 147.972 176.577 150.766 176.577 154.013C176.577 158.412 180.153 161.979 184.563 161.979C188.44 161.979 191.947 155.946 192.396 155.57C192.845 155.193 194.62 156.963 194.62 156.963L195.507 157.553L198.761 159.028L200.239 159.323L202.014 159.616C202.014 159.616 209.408 159.323 209.531 159.908C209.655 160.493 209.704 162.061 209.704 163.159C209.704 180.431 195.27 194.434 177.465 194.434C159.659 194.434 145.225 180.431 145.225 163.159C145.225 148.049 156.272 135.442 170.958 132.522V132.769Z" fill="#001F3F"/>
<path d="M575.693 515C566.343 515 559.118 512.592 554.018 507.775C549.202 502.675 546.793 495.45 546.793 486.1V244.275C546.793 234.925 549.202 227.842 554.018 223.025C559.118 217.925 566.343 215.375 575.693 215.375H727.418C734.502 215.375 739.885 217.217 743.568 220.9C747.535 224.583 749.518 229.825 749.518 236.625C749.518 243.708 747.535 249.233 743.568 253.2C739.885 256.883 734.502 258.725 727.418 258.725H599.068V341.175H718.068C725.435 341.175 730.96 343.017 734.643 346.7C738.327 350.383 740.168 355.767 740.168 362.85C740.168 369.933 738.327 375.317 734.643 379C730.96 382.683 725.435 384.525 718.068 384.525H599.068V471.65H727.418C734.502 471.65 739.885 473.492 743.568 477.175C747.535 480.858 749.518 486.242 749.518 493.325C749.518 500.408 747.535 505.792 743.568 509.475C739.885 513.158 734.502 515 727.418 515H575.693ZM873.937 519.25C855.804 519.25 839.795 514.858 825.912 506.075C812.312 497.292 801.687 484.825 794.037 468.675C786.387 452.242 782.562 432.975 782.562 410.875C782.562 388.492 786.387 369.367 794.037 353.5C801.687 337.35 812.312 324.883 825.912 316.1C839.795 307.317 855.804 302.925 873.937 302.925C891.22 302.925 906.237 307.175 918.987 315.675C932.02 324.175 940.804 335.367 945.337 349.25H940.662V238.75C940.662 229.967 942.929 223.308 947.462 218.775C951.995 214.242 958.512 211.975 967.012 211.975C975.512 211.975 982.029 214.242 986.562 218.775C991.379 223.308 993.787 229.967 993.787 238.75V491.2C993.787 499.983 991.52 506.783 986.987 511.6C982.454 516.133 975.937 518.4 967.437 518.4C958.937 518.4 952.42 516.133 947.887 511.6C943.354 506.783 941.087 499.983 941.087 491.2V458.05L945.762 470.8C941.512 485.533 932.87 497.292 919.837 506.075C906.804 514.858 891.504 519.25 873.937 519.25ZM888.812 478.875C899.295 478.875 908.504 476.325 916.437 471.225C924.37 466.125 930.462 458.617 934.712 448.7C939.245 438.5 941.512 425.892 941.512 410.875C941.512 388.208 936.695 371.35 927.062 360.3C917.429 348.967 904.679 343.3 888.812 343.3C878.329 343.3 869.12 345.85 861.187 350.95C853.254 355.767 847.02 363.275 842.487 373.475C838.237 383.392 836.112 395.858 836.112 410.875C836.112 433.258 840.929 450.258 850.562 461.875C860.195 473.208 872.945 478.875 888.812 478.875ZM1124.1 519.25C1106.81 519.25 1092.5 516.133 1081.17 509.9C1069.84 503.383 1061.34 493.75 1055.67 481C1050.29 468.25 1047.6 452.383 1047.6 433.4V330.55C1047.6 321.483 1049.86 314.825 1054.4 310.575C1058.93 306.042 1065.45 303.775 1073.95 303.775C1082.45 303.775 1088.96 306.042 1093.5 310.575C1098.31 314.825 1100.72 321.483 1100.72 330.55V434.25C1100.72 448.983 1103.7 459.892 1109.65 466.975C1115.6 474.058 1125.09 477.6 1138.12 477.6C1152.29 477.6 1163.9 472.783 1172.97 463.15C1182.04 453.233 1186.57 440.2 1186.57 424.05V330.55C1186.57 321.483 1188.84 314.825 1193.37 310.575C1197.9 306.042 1204.42 303.775 1212.92 303.775C1221.42 303.775 1227.94 306.042 1232.47 310.575C1237.29 314.825 1239.7 321.483 1239.7 330.55V491.2C1239.7 509.333 1231.05 518.4 1213.77 518.4C1205.55 518.4 1199.18 516.133 1194.65 511.6C1190.11 506.783 1187.85 499.983 1187.85 491.2V458.9L1193.8 471.65C1187.85 486.95 1178.78 498.708 1166.6 506.925C1154.7 515.142 1140.53 519.25 1124.1 519.25ZM1391.04 519.25C1369.22 519.25 1350.24 514.858 1334.09 506.075C1317.94 497.008 1305.47 484.258 1296.69 467.825C1287.91 451.392 1283.51 432.125 1283.51 410.025C1283.51 393.308 1285.92 378.433 1290.74 365.4C1295.84 352.083 1303.06 340.892 1312.41 331.825C1321.76 322.475 1333.1 315.392 1346.41 310.575C1359.73 305.475 1374.61 302.925 1391.04 302.925C1400.39 302.925 1410.45 304.2 1421.21 306.75C1432.26 309.3 1442.61 313.55 1452.24 319.5C1456.77 322.333 1459.75 325.733 1461.16 329.7C1462.58 333.667 1462.86 337.775 1462.01 342.025C1461.16 345.992 1459.32 349.533 1456.49 352.65C1453.94 355.483 1450.68 357.325 1446.71 358.175C1442.75 358.742 1438.36 357.75 1433.54 355.2C1427.31 351.517 1420.93 348.825 1414.41 347.125C1407.9 345.142 1401.66 344.15 1395.71 344.15C1386.36 344.15 1378.15 345.708 1371.06 348.825C1363.98 351.658 1357.89 355.908 1352.79 361.575C1347.97 366.958 1344.29 373.758 1341.74 381.975C1339.19 390.192 1337.91 399.683 1337.91 410.45C1337.91 431.417 1342.87 447.992 1352.79 460.175C1362.99 472.075 1377.3 478.025 1395.71 478.025C1401.66 478.025 1407.76 477.175 1413.99 475.475C1420.51 473.775 1427.02 471.083 1433.54 467.4C1438.36 464.85 1442.61 464 1446.29 464.85C1450.26 465.7 1453.51 467.683 1456.06 470.8C1458.61 473.633 1460.17 477.175 1460.74 481.425C1461.31 485.392 1460.74 489.358 1459.04 493.325C1457.62 497.292 1454.79 500.55 1450.54 503.1C1441.19 508.767 1431.27 512.875 1420.79 515.425C1410.31 517.975 1400.39 519.25 1391.04 519.25ZM1503.53 518.4C1496.73 518.4 1491.2 516.842 1486.95 513.725C1482.99 510.608 1480.58 506.5 1479.73 501.4C1478.88 496.017 1479.87 490.067 1482.7 483.55L1594.9 234.925C1598.59 226.708 1602.98 220.9 1608.08 217.5C1613.46 213.817 1619.55 211.975 1626.35 211.975C1632.87 211.975 1638.68 213.817 1643.78 217.5C1649.16 220.9 1653.69 226.708 1657.38 234.925L1770 483.55C1773.12 490.067 1774.25 496.017 1773.4 501.4C1772.55 506.783 1770.14 511.033 1766.18 514.15C1762.21 516.983 1756.97 518.4 1750.45 518.4C1742.52 518.4 1736.29 516.558 1731.75 512.875C1727.5 508.908 1723.68 502.958 1720.28 495.025L1692.65 430.85L1715.6 445.725H1536.25L1559.2 430.85L1532 495.025C1528.32 503.242 1524.49 509.192 1520.53 512.875C1516.56 516.558 1510.89 518.4 1503.53 518.4ZM1625.5 274.45L1566 415.975L1554.95 402.375H1696.9L1686.28 415.975L1626.35 274.45H1625.5ZM1838.06 518.4C1829.56 518.4 1823.05 516.133 1818.51 511.6C1813.98 506.783 1811.71 499.983 1811.71 491.2V238.75C1811.71 229.683 1813.98 223.025 1818.51 218.775C1823.05 214.242 1829.56 211.975 1838.06 211.975C1846.56 211.975 1853.08 214.242 1857.61 218.775C1862.43 223.025 1864.84 229.683 1864.84 238.75V491.2C1864.84 509.333 1855.91 518.4 1838.06 518.4ZM1945.97 517.975C1937.47 517.975 1930.96 515.425 1926.42 510.325C1921.89 505.225 1919.62 498.142 1919.62 489.075V333.1C1919.62 323.75 1921.89 316.667 1926.42 311.85C1930.96 306.75 1937.47 304.2 1945.97 304.2C1954.47 304.2 1960.99 306.75 1965.52 311.85C1970.34 316.667 1972.75 323.75 1972.75 333.1V489.075C1972.75 498.142 1970.48 505.225 1965.95 510.325C1961.41 515.425 1954.76 517.975 1945.97 517.975ZM1945.97 264.675C1936.06 264.675 1928.26 262.267 1922.6 257.45C1917.21 252.35 1914.52 245.408 1914.52 236.625C1914.52 227.558 1917.21 220.617 1922.6 215.8C1928.26 210.983 1936.06 208.575 1945.97 208.575C1956.17 208.575 1963.96 210.983 1969.35 215.8C1974.73 220.617 1977.42 227.558 1977.42 236.625C1977.42 245.408 1974.73 252.35 1969.35 257.45C1963.96 262.267 1956.17 264.675 1945.97 264.675ZM2054.3 518.4C2045.8 518.4 2039.28 516.133 2034.75 511.6C2030.21 506.783 2027.95 499.983 2027.95 491.2V330.55C2027.95 321.767 2030.21 315.108 2034.75 310.575C2039.28 306.042 2045.66 303.775 2053.87 303.775C2062.09 303.775 2068.46 306.042 2073 310.575C2077.53 315.108 2079.8 321.767 2079.8 330.55V359.45L2075.12 348.825C2081.36 333.808 2090.99 322.475 2104.02 314.825C2117.34 306.892 2132.36 302.925 2149.07 302.925C2165.79 302.925 2179.53 306.042 2190.3 312.275C2201.06 318.508 2209.14 328 2214.52 340.75C2219.91 353.217 2222.6 369.083 2222.6 388.35V491.2C2222.6 499.983 2220.33 506.783 2215.8 511.6C2211.26 516.133 2204.75 518.4 2196.25 518.4C2187.75 518.4 2181.09 516.133 2176.27 511.6C2171.74 506.783 2169.47 499.983 2169.47 491.2V390.9C2169.47 374.75 2166.36 362.992 2160.12 355.625C2154.17 348.258 2144.82 344.575 2132.07 344.575C2116.49 344.575 2104.02 349.533 2094.67 359.45C2085.61 369.083 2081.07 381.975 2081.07 398.125V491.2C2081.07 509.333 2072.15 518.4 2054.3 518.4Z" fill="#001F3F"/>
</svg>
